HIERARCHY
ROOT hip
{
  OFFSET 0 0 0
  CHANNELS 6 Xposition Yposition Zposition Zrotation Yrotation Xrotation
  JOINT abdomen
  {
    OFFSET 0 20.6881 -0.73152
    CHANNELS 3 Zrotation Xrotation Yrotation
    JOINT chest
    {
      OFFSET 0 11.7043 -0.48768
      CHANNELS 3 Zrotation Xrotation Yrotation
      JOINT neck
      {
        OFFSET 0 22.1894 -2.19456
        CHANNELS 3 Zrotation Xrotation Yrotation
        JOINT head
        {
          OFFSET -0.24384 7.07133 1.2192
          CHANNELS 3 Zrotation Xrotation Yrotation
          JOINT leftEye
          {
            OFFSET 4.14528 8.04674 8.04672
            CHANNELS 3 Zrotation Xrotation Yrotation
            End Site
            {
              OFFSET 1 0 0
            }
          }
          JOINT rightEye
          {
            OFFSET -3.6576 8.04674 8.04672
            CHANNELS 3 Zrotation Xrotation Yrotation
            End Site
            {
              OFFSET 1 0 0
            }
          }
        }
      }
      JOINT rCollar
      {
        OFFSET -2.68224 19.2634 -4.8768
        CHANNELS 3 Zrotation Xrotation Yrotation
        JOINT rShldr
        {
          OFFSET -8.77824 -1.95073 1.46304
          CHANNELS 3 Zrotation Xrotation Yrotation
          JOINT rForeArm
          {
            OFFSET -28.1742 -1.7115 0.48768
            CHANNELS 3 Zrotation Xrotation Yrotation
            JOINT rHand
            {
              OFFSET -22.5879 0.773209 7.07136
              CHANNELS 3 Zrotation Xrotation Yrotation
              JOINT rThumb1
              {
                OFFSET -1.2192 -0.487915 3.41376
                CHANNELS 3 Zrotation Xrotation Yrotation
                JOINT rThumb2
                {
                  OFFSET -3.37035 -0.52449 3.41376
                  CHANNELS 3 Zrotation Xrotation Yrotation
                  End Site
                  {
                    OFFSET -1.78271 -1.18214 1.43049
                  }
                }
              }
              JOINT rIndex1
              {
                OFFSET -7.75947 0.938293 5.60832
                CHANNELS 3 Zrotation Xrotation Yrotation
                JOINT rIndex2
                {
                  OFFSET -2.54057 -0.884171 1.56538
                  CHANNELS 3 Zrotation Xrotation Yrotation
                  End Site
                  {
                    OFFSET -1.62519 -0.234802 1.16502
                  }
                }
              }
              JOINT rMid1
              {
                OFFSET -8.24714 1.18213 3.41376
                CHANNELS 3 Zrotation Xrotation Yrotation
                JOINT rMid2
                {
                  OFFSET -3.10165 -0.590103 1.0647
                  CHANNELS 3 Zrotation Xrotation Yrotation
                  End Site
                  {
                    OFFSET -2.48547 -0.328903 0.83742
                  }
                }
              }
              JOINT rRing1
              {
                OFFSET -8.82822 0.546677 1.51678
                CHANNELS 3 Zrotation Xrotation Yrotation
                JOINT rRing2
                {
                  OFFSET -2.60934 -0.819778 -0.0198488
                  CHANNELS 3 Zrotation Xrotation Yrotation
                  End Site
                  {
                    OFFSET -2.33842 -0.294052 0.168128
                  }
                }
              }
              JOINT rPinky1
              {
                OFFSET -8.27202 -0.0477905 -0.4584
                CHANNELS 3 Zrotation Xrotation Yrotation
                JOINT rPinky2
                {
                  OFFSET -1.82734 -0.647385 -0.700984
                  CHANNELS 3 Zrotation Xrotation Yrotation
                  End Site
                  {
                    OFFSET -1.69225 -0.51767 -0.607171
                  }
                }
              }
            }
          }
        }
      }
      JOINT lCollar
      {
        OFFSET 2.68224 19.2634 -4.8768
        CHANNELS 3 Zrotation Xrotation Yrotation
        JOINT lShldr
        {
          OFFSET 8.77824 -1.95073 1.46304
          CHANNELS 3 Zrotation Xrotation Yrotation
          JOINT lForeArm
          {
            OFFSET 28.1742 -1.7115 0.48768
            CHANNELS 3 Zrotation Xrotation Yrotation
            JOINT lHand
            {
              OFFSET 22.5879 0.773209 7.07136
              CHANNELS 3 Zrotation Xrotation Yrotation
              JOINT lThumb1
              {
                OFFSET 1.2192 -0.487915 3.41376
                CHANNELS 3 Zrotation Xrotation Yrotation
                JOINT lThumb2
                {
                  OFFSET 3.37035 -0.52449 3.41376
                  CHANNELS 3 Zrotation Xrotation Yrotation
                  End Site
                  {
                    OFFSET 1.78271 -1.18214 1.43049
                  }
                }
              }
              JOINT lIndex1
              {
                OFFSET 7.75947 0.938293 5.60832
                CHANNELS 3 Zrotation Xrotation Yrotation
                JOINT lIndex2
                {
                  OFFSET 2.54057 -0.884171 1.56538
                  CHANNELS 3 Zrotation Xrotation Yrotation
                  End Site
                  {
                    OFFSET 1.62519 -0.234802 1.16502
                  }
                }
              }
              JOINT lMid1
              {
                OFFSET 8.24714 1.18213 3.41376
                CHANNELS 3 Zrotation Xrotation Yrotation
                JOINT lMid2
                {
                  OFFSET 3.10165 -0.590103 1.0647
                  CHANNELS 3 Zrotation Xrotation Yrotation
                  End Site
                  {
                    OFFSET 2.48547 -0.328903 0.83742
                  }
                }
              }
              JOINT lRing1
              {
                OFFSET 8.82822 0.546677 1.51678
                CHANNELS 3 Zrotation Xrotation Yrotation
                JOINT lRing2
                {
                  OFFSET 2.60934 -0.819778 -0.0198488
                  CHANNELS 3 Zrotation Xrotation Yrotation
                  End Site
                  {
                    OFFSET 2.33842 -0.294052 0.168128
                  }
                }
              }
              JOINT lPinky1
              {
                OFFSET 8.27202 -0.0477905 -0.4584
                CHANNELS 3 Zrotation Xrotation Yrotation
                JOINT lPinky2
                {
                  OFFSET 1.82734 -0.647385 -0.700984
                  CHANNELS 3 Zrotation Xrotation Yrotation
                  End Site
                  {
                    OFFSET 1.69225 -0.51767 -0.607171
                  }
                }
              }
            }
          }
        }
      }
    }
  }
  JOINT rButtock
  {
    OFFSET -8.77824 4.35084 1.2192
    CHANNELS 3 Zrotation Xrotation Yrotation
    JOINT rThigh
    {
      OFFSET 0 -1.70687 -2.19456
      CHANNELS 3 Zrotation Xrotation Yrotation
      JOINT rShin
      {
        OFFSET 0 -36.8199 0.73152
        CHANNELS 3 Zrotation Xrotation Yrotation
        JOINT rFoot
        {
          OFFSET 0.73152 -45.1104 -5.12064
          CHANNELS 3 Zrotation Xrotation Yrotation
          End Site
          {
            OFFSET -1.1221 -3.69964 12.103
          }
        }
      }
    }
  }
  JOINT lButtock
  {
    OFFSET 8.77824 4.35084 1.2192
    CHANNELS 3 Zrotation Xrotation Yrotation
    JOINT lThigh
    {
      OFFSET 0 -1.70687 -2.19456
      CHANNELS 3 Zrotation Xrotation Yrotation
      JOINT lShin
      {
        OFFSET 0 -36.8199 0.73152
        CHANNELS 3 Zrotation Xrotation Yrotation
        JOINT lFoot
        {
          OFFSET -0.73152 -45.1104 -5.12064
          CHANNELS 3 Zrotation Xrotation Yrotation
          End Site
          {
            OFFSET 1.1221 -3.69964 12.103
          }
        }
      }
    }
  }
}
MOTION
Frames:	4
Frame Time:	0.00833333
-0.3434725 0.35531485 0.2301423 -17.112879 -24.69039 18.516092 11.844157 9.914125 4.1453 1.8499293 -7.203637 1.3295346 -0.7294206 11.935257 6.7085686 5.553756 -22.823465 13.813905 0.15132205 0.032797124 -0.38915604 0.34370354 -0.546205 0.10949924 -0.7321555 -0.10988525 -0.32510704 108.730934 49.173386 -57.35226 -26.774729 -41.080727 86.87594 -10.287536 -55.9446 -15.627057 0.007320555 -0.34326133 0.2133036 0.032661643 -0.18299592 -0.24216782 0.1017728 0.038823593 -0.1228179 7.421364 5.896052 0.56621176 -0.034194913 -0.1978401 0.660747 2.87417 1.0583792 0.13342272 0.057082824 0.23295352 -0.33922625 10.542204 0.8358268 -0.26402107 0.3565641 -0.61020887 -0.065412395 2.5475268 -0.79235846 -0.1287688 -0.24184701 -0.023663536 0.2846729 -48.080914 -10.009393 -65.13033 8.411547 0.6625173 -10.243233 10.195074 66.78251 -20.11145 0.16885006 -0.38938457 0.25588682 -0.2603923 0.18669745 0.06640769 -0.015037194 0.22792372 -0.76877385 -7.758108 5.373382 -0.34530872 0.40284473 -0.05760101 -0.13804942 -2.6668282 0.9812967 -0.11904005 -0.31801262 0.106019154 -0.1701543 -10.628737 0.9043955 0.011635013 -0.23558848 -0.41046682 -0.012859484 -2.3646805 -0.8104684 0.7473994 0.5445005 -0.011242491 -0.08739995 -15.465084 13.681446 -5.457113 -3.3499131 33.236042 2.56513 -9.590287 -17.279442 -31.663908 -0.1561225 -0.4761793 -0.1551495 99.18568 -55.223476 86.33144 12.756082 77.97825 -9.775 -0.78973097 1.2949917 -4.383708
0.4022738 0.18587923 1.0622667 -16.027489 -24.594013 17.560266 11.777348 7.031007 4.8968086 1.8900846 -7.5002885 1.4335512 -0.31452826 12.14617 6.326771 5.3131413 -24.123512 13.621522 -0.5658958 0.31692824 -0.0051866747 -0.0907778 0.12274767 -0.35982287 0.26078558 -0.26461828 -0.7338157 106.75423 45.498005 -55.345284 -26.951342 -43.551155 89.94539 -7.831073 -59.851715 -14.744871 0.02183065 -0.1456623 0.14790668 0.102423966 0.16392244 -0.23263457 -0.008388433 0.17033236 0.40247688 7.7419176 5.935439 0.16209489 0.017081182 -0.09205488 0.483999 2.4917734 1.0794472 -0.120415375 -0.10575288 0.2986399 -0.2889059 10.25938 0.5171426 0.11960525 0.18129896 -0.014495048 -0.19198924 2.2838 -1.0727361 -0.6807393 -0.31495228 0.2965147 -0.018418565 -57.07281 -19.25196 -72.789024 7.30634 -0.86555576 -11.506769 13.545781 66.16573 -17.657484 -0.2588286 0.07258338 -0.017860517 -0.3955694 -0.048662532 -0.39456218 0.37479797 -0.08159221 -0.14911614 -8.238635 5.571282 -0.6290933 -0.14375597 -0.25208285 -0.2579059 -2.9775238 0.7440179 0.11845191 0.0048490074 -0.091396786 0.24128251 -10.362829 1.1944795 0.31369978 0.32948482 -0.26643223 -0.04895319 -2.2362998 -1.2211769 -0.030773843 0.42544714 -0.48712406 0.036004487 -14.760919 14.496509 -2.1720018 -0.5786932 29.241045 2.7852082 -7.116234 -15.520113 -30.839016 -0.7433478 0.30007774 -0.26854697 97.066025 -54.61672 86.463135 9.493299 82.14705 -5.7626567 -1.4856851 -1.5680292 -6.497867
2.47253 0.68194884 1.0768255 -15.427535 -27.481602 16.187082 11.355188 6.42789 3.8945153 1.9032573 -7.472782 0.2766441 -0.532003 12.388095 6.273878 5.720512 -24.517628 13.221978 -0.45133626 0.14915489 -0.071057975 -0.12033341 -0.11119868 -0.00484794 0.1978844 -0.21073651 -0.2368515 108.72921 46.259514 -57.70287 -27.215479 -42.675423 89.03706 -7.664249 -59.399754 -13.238179 0.17757325 -0.17201291 0.24913599 0.46161693 0.06655267 0.07384431 -0.16094348 0.014347386 0.3696067 7.875041 5.6279573 -0.04825806 0.31441975 -0.21908167 0.37739974 2.7667146 0.87190664 -0.6198183 -0.23727868 0.2709491 -0.30018967 10.209402 0.7922828 -0.05471803 0.12778944 0.103023045 -0.47679284 2.1262834 -0.3712649 -0.6853403 0.06541325 0.08036483 0.05666314 -61.98759 -22.533564 -77.789825 6.852678 -2.1436846 -12.325489 11.985567 65.34792 -18.2375 -0.25311026 -0.19501851 -0.08454995 -0.5133378 -0.15466493 -0.12572542 0.17490993 -0.13962677 -0.0860337 -7.795456 5.8739166 -0.24568254 -0.21395686 0.32755297 0.13613206 -2.897253 0.9457889 -0.025524415 0.12991056 0.09165654 0.3216028 -10.11139 1.0718884 -0.08548649 -0.051110595 -0.18165548 -0.17757952 -1.8589734 -1.0418313 0.07282251 0.2672555 0.008359084 0.21166883 -12.880618 13.740313 -2.9497569 -0.018188685 29.294804 2.4938679 -7.1002884 -16.596235 -31.913118 -0.16169658 -0.22194934 0.14041449 96.04812 -54.81929 85.702415 7.5212555 82.8369 -3.4455445 -1.7898736 -1.8224297 -8.55136
3.8099415 0.64393497 1.2338417 -15.03037 -26.64272 15.919777 11.962168 6.3603644 3.8568783 1.5259731 -7.5432744 0.8869602 -0.4590666 12.184191 5.9480534 6.1587768 -23.901915 12.895879 -0.16030276 -0.23290132 -0.2997644 0.031291388 -0.27840084 0.18201044 -0.028063646 -0.14027213 -0.18945318 107.84032 47.1046 -56.554768 -27.354616 -42.805706 89.62842 -8.163738 -58.47669 -14.2297325 0.13756526 -0.3741277 -0.08033156 0.48420095 -0.19063088 -0.11782145 -0.089297034 0.106699005 0.04414287 7.6625566 5.264711 0.15715261 0.22993569 -0.10737585 0.3336382 3.240811 0.6782129 -0.25203878 -0.47194466 0.2246671 -0.046061724 10.2842865 0.8096734 0.06647268 0.016893458 -0.1292705 -0.32643607 2.3470945 -0.79102176 -0.34660402 0.25465554 0.12369715 0.24465737 -62.259903 -23.644377 -78.50192 7.2915697 -3.21814 -14.061369 11.473564 64.92024 -18.941061 -0.40914655 -0.24764918 0.123511374 -0.10504606 -0.1528925 -0.009577632 0.026943494 -0.12495959 0.027338684 -7.83689 5.648338 -0.1739249 -0.023437282 0.4134263 0.22974104 -2.9514723 1.0189112 -0.3753319 0.17761052 0.09668314 0.34351617 -9.956895 0.8728513 0.046133015 -0.2723118 0.19450644 -0.063390024 -1.9433078 -0.98344034 0.36790246 0.25599757 -0.03156145 -0.06109241 -13.639806 12.914489 -4.07298 -0.57429326 29.942226 2.7820907 -7.1798844 -16.208055 -31.538124 -0.13411863 -0.1938016 0.0669573 97.04803 -54.281918 86.85359 8.190432 82.74617 -6.5849185 -1.5253638 -1.8727355 -8.73686
